# xmcd
# 
# Track frame offsets:
#     150
#     19520
#     35337
#     47225
#     63772
#     81902
#     97107
#     114672
#     131577
#     150367
#     165272
#     181572
#     197682
#     213310
# 
# Disc length: 3085
# 
# Revision: 2
# Processed by: cddbd v1.5.2PL0 Copyright (c) Steve Scherf et al.
# Submitted via: fre:ac v1.0.17
# 
DISCID=a80c0b0e
DTITLE=Sérgio Reis - Vida Violeira
DYEAR=0
DGENRE=Sertanejo
TTITLE0=Água de Mina
TTITLE1=Pela Estrada
TTITLE2=Fui Pra Casa da Vizinha
TTITLE3=O Rodeio
TTITLE4=Prece do Peão
TTITLE5=Dono das Madrugadas
TTITLE6=Distância Danada
TTITLE7=Vida Violeira
TTITLE8=Canto Alegretense
TTITLE9=Menina
TTITLE10=Quando Um Homem Ama Uma Mulher
TTITLE11=Baile de Cowboy
TTITLE12=Minas Gerais
TTITLE13=Amada Minha (Amada Mia)
EXTD=
EXTT0=
EXTT1=
EXTT2=
EXTT3=
EXTT4=
EXTT5=
EXTT6=
EXTT7=
EXTT8=
EXTT9=
EXTT10=
EXTT11=
EXTT12=
EXTT13=
PLAYORDER=
